<svg width="409" height="80" viewBox="0 0 409 80" fill="none" xmlns="http://www.w3.org/2000/svg">
<path d="M390.849 66.8806C387.087 66.8806 383.757 66.0539 380.857 64.4005C377.958 62.7471 375.681 60.3988 374.028 57.3556C372.375 54.3124 371.548 50.7181 371.548 46.5726C371.548 42.4271 372.363 38.8328 373.992 35.7896C375.621 32.7464 377.874 30.3981 380.749 28.7447C383.625 27.0913 386.944 26.2646 390.706 26.2646C392.814 26.2646 394.935 26.5881 397.068 27.2351C399.224 27.8821 401.189 29.0323 402.962 30.6857C404.759 32.3151 406.209 34.5795 407.311 37.479C408.414 40.3544 408.965 44.0087 408.965 48.4417H377.263V42.7986H401.057L399.691 44.8473C399.548 41.9479 399.044 39.6236 398.182 37.8743C397.343 36.1011 396.253 34.8192 394.911 34.0284C393.593 33.2137 392.119 32.8063 390.49 32.8063C388.429 32.8063 386.692 33.3694 385.278 34.4957C383.864 35.5979 382.786 37.1914 382.043 39.2761C381.324 41.3369 380.965 43.781 380.965 46.6086C380.965 50.8259 381.792 54.1327 383.445 56.5289C385.098 58.9012 387.543 60.0873 390.777 60.0873C392.982 60.0873 394.863 59.5242 396.421 58.3979C397.978 57.2717 399.14 55.5944 399.907 53.3659H408.863C408.863 53.3659 408.863 53.8111 408.174 55.6663C407.485 57.5214 405.91 60.267 404.184 61.9204C402.459 63.5738 400.446 64.8198 398.146 65.6585C395.845 66.4732 393.413 66.8806 390.849 66.8806Z" fill="black"/>
<path d="M338.614 79.9997V73.2424H344.904C345.384 73.2424 345.743 73.1226 345.983 72.8829C346.246 72.6433 346.486 72.236 346.702 71.6609L349.002 65.227L348.391 68.6776L331.965 27.1631H341.957L352.884 60.2309L351.698 60.0152L362.589 27.1631H372.509L354.286 74.3926C353.519 76.3575 352.393 77.7832 350.907 78.6698C349.421 79.5564 347.732 79.9997 345.839 79.9997H338.614Z" fill="black"/>
<path d="M295.279 65.982V14.2236H330.863V22.0233H304.589V34.8551H327.161V42.4391H304.589V58.1823H331.366V65.982H295.279Z" fill="black"/>
<path d="M270.726 66.8806C266.916 66.8806 263.55 66.0299 260.626 64.3286C257.727 62.6033 255.462 60.2191 253.833 57.1759C252.228 54.1087 251.425 50.5743 251.425 46.5726C251.425 42.5709 252.228 39.0485 253.833 36.0053C255.462 32.9381 257.727 30.5539 260.626 28.8526C263.55 27.1273 266.916 26.2646 270.726 26.2646C274.536 26.2646 277.891 27.1273 280.79 28.8526C283.69 30.5539 285.954 32.9381 287.584 36.0053C289.213 39.0485 290.028 42.5709 290.028 46.5726C290.028 50.5743 289.213 54.1087 287.584 57.1759C285.954 60.2191 283.678 62.6033 280.755 64.3286C277.855 66.0299 274.512 66.8806 270.726 66.8806ZM270.726 60.1232C273.77 60.1232 276.178 58.9131 277.951 56.493C279.724 54.0488 280.611 50.742 280.611 46.5726C280.611 42.3792 279.724 39.0724 277.951 36.6523C276.178 34.2321 273.77 33.022 270.726 33.022C267.659 33.022 265.239 34.2321 263.466 36.6523C261.717 39.0724 260.842 42.3792 260.842 46.5726C260.842 50.742 261.717 54.0488 263.466 56.493C265.239 58.9131 267.659 60.1232 270.726 60.1232Z" fill="black"/>
<path d="M241.764 23.0418C240.145 23.0418 238.82 22.5265 237.789 21.4959C236.758 20.4654 236.243 19.1403 236.243 17.5209C236.243 15.8804 236.758 14.5554 237.789 13.5458C238.82 12.5153 240.145 12 241.764 12C243.405 12 244.73 12.5153 245.739 13.5458C246.77 14.5554 247.285 15.8804 247.285 17.5209C247.285 19.1403 246.77 20.4654 245.739 21.4959C244.73 22.5265 243.405 23.0418 241.764 23.0418Z" fill="black"/>
<path d="M237.404 27.1631V65.9818H246.282V27.1631H237.404Z" fill="black"/>
<path d="M208.496 66.8809C205.309 66.8809 202.506 66.0662 200.085 64.4367C197.689 62.8073 195.832 60.471 194.514 57.4278C193.22 54.3606 192.573 50.7184 192.573 46.501C192.573 42.2837 193.232 38.6654 194.55 35.6462C195.868 32.6269 197.725 30.3146 200.121 28.7091C202.542 27.0797 205.369 26.265 208.604 26.265C211.336 26.265 213.876 26.912 216.224 28.2059C218.572 29.4999 220.417 31.6565 221.759 34.6757L220.825 34.8195V12.0674H229.739V65.9823H221.292V58.0748L221.436 58.6139C220.238 61.4415 218.476 63.5262 216.152 64.8681C213.852 66.2099 211.3 66.8809 208.496 66.8809ZM211.515 59.9798C213.336 59.9798 214.978 59.5005 216.44 58.542C217.901 57.5836 219.063 56.1219 219.926 54.157C220.789 52.1681 221.22 49.6641 221.22 46.6448C221.22 42.116 220.286 38.7373 218.416 36.5088C216.547 34.2803 214.271 33.1661 211.587 33.1661C208.76 33.1661 206.459 34.3522 204.686 36.7245C202.937 39.0728 202.062 42.4035 202.062 46.7167C202.062 50.8861 202.913 54.145 204.614 56.4933C206.316 58.8176 208.616 59.9798 211.515 59.9798Z" fill="black"/>
<path d="M165.96 66.8804C163.085 66.8804 160.664 66.2334 158.7 64.9395C156.759 63.6216 155.297 61.7765 154.314 59.4042C153.332 57.032 152.841 54.2763 152.841 51.1373V27.1631H161.719V50.1668C161.719 53.3058 162.282 55.726 163.408 57.4273C164.534 59.1287 166.403 59.9793 169.015 59.9793C170.741 59.9793 172.298 59.536 173.688 58.6494C175.078 57.7388 176.192 56.3131 177.031 54.3722C177.869 52.4312 178.289 49.8912 178.289 46.7522V27.1631H187.203V65.9818H178.648V56.8522L178.9 58.4697C177.797 61.0097 176.144 63.0465 173.94 64.58C171.759 66.1136 169.099 66.8804 165.96 66.8804Z" fill="black"/>
<path d="M98.9824 65.982L119.614 14.2236H130.756L151.316 65.982H141.324L125.149 21.7717L108.975 65.982H98.9824ZM111.275 50.742V43.2299H138.951V50.742H111.275Z" fill="black"/>
<g clip-path="url(#clip0_16070_1801)">
<path fill-rule="evenodd" clip-rule="evenodd" d="M15.7124 9C22.6024 14.63 31.4024 18 40.9824 18C50.5624 18 59.3624 14.63 66.2524 9C59.3624 3.37 50.5624 0 40.9824 0C31.4024 0 22.6024 3.37 15.7124 9ZM9.98242 65.2705C15.6124 58.3805 18.9824 49.5805 18.9824 40.0005C18.9824 30.4205 15.6124 21.6205 9.98242 14.7305C4.35242 21.6205 0.982422 30.4205 0.982422 40.0005C0.982422 49.5805 4.35242 58.3805 9.98242 65.2705ZM66.2524 71C59.3624 65.37 50.5624 62 40.9824 62C31.4024 62 22.6024 65.37 15.7124 71C22.6024 76.63 31.4024 80 40.9824 80C50.5624 80 59.3624 76.63 66.2524 71ZM62.9824 40.0005C62.9824 30.4205 66.3524 21.6205 71.9824 14.7305C77.6124 21.6205 80.9824 30.4205 80.9824 40.0005C80.9824 49.5805 77.6124 58.3805 71.9824 65.2705C66.3524 58.3805 62.9824 49.5805 62.9824 40.0005Z" fill="#8055F7"/>
</g>
<defs>
<clipPath id="clip0_16070_1801">
<rect width="80" height="80" fill="white" transform="translate(0.982422)"/>
</clipPath>
</defs>
</svg>
