<svg width="80" height="80" viewBox="0 0 80 80" fill="none" xmlns="http://www.w3.org/2000/svg">
<g clip-path="url(#clip0_16070_1629)">
<path fill-rule="evenodd" clip-rule="evenodd" d="M14.73 9C21.62 14.63 30.42 18 40 18C49.58 18 58.38 14.63 65.27 9C58.38 3.37 49.58 0 40 0C30.42 0 21.62 3.37 14.73 9ZM9 65.2705C14.63 58.3805 18 49.5805 18 40.0005C18 30.4205 14.63 21.6205 9 14.7305C3.37 21.6205 0 30.4205 0 40.0005C0 49.5805 3.37 58.3805 9 65.2705ZM65.27 71C58.38 65.37 49.58 62 40 62C30.42 62 21.62 65.37 14.73 71C21.62 76.63 30.42 80 40 80C49.58 80 58.38 76.63 65.27 71ZM62 40.0005C62 30.4205 65.37 21.6205 71 14.7305C76.63 21.6205 80 30.4205 80 40.0005C80 49.5805 76.63 58.3805 71 65.2705C65.37 58.3805 62 49.5805 62 40.0005Z" fill="#8055F7"/>
</g>
<defs>
<clipPath id="clip0_16070_1629">
<rect width="80" height="80" fill="white"/>
</clipPath>
</defs>
</svg>
