<svg width="24" height="24" viewBox="0 0 24 24" fill="none" xmlns="http://www.w3.org/2000/svg">
<path fill-rule="evenodd" clip-rule="evenodd" d="M19.5917 2.7061C17.5217 4.40342 14.8738 5.42208 11.988 5.42208C9.10788 5.42208 6.46468 4.40738 4.39648 2.71598C6.46649 1.01865 9.11433 0 12.0001 0C14.8803 0 17.5235 1.01469 19.5917 2.7061Z" fill="#141316"/>
<path fill-rule="evenodd" clip-rule="evenodd" d="M19.6966 21.2068C17.6132 22.9502 14.9293 23.9996 12.0003 23.9996C9.03298 23.9996 6.31726 22.9226 4.22266 21.1382C6.306 19.3949 8.98992 18.3455 11.919 18.3455C14.8862 18.3455 17.602 19.4224 19.6966 21.2068Z" fill="#141316"/>
<path fill-rule="evenodd" clip-rule="evenodd" d="M21.2188 4.31714C22.9552 6.39854 24 9.07708 24 11.9997C24 14.9572 22.9301 17.6648 21.1562 19.7566C19.4198 17.6752 18.375 14.9966 18.375 12.074C18.375 9.11654 19.4449 6.40893 21.2188 4.31714Z" fill="#141316"/>
<path fill-rule="evenodd" clip-rule="evenodd" d="M2.74226 4.36426C4.40472 6.42358 5.40015 9.0438 5.40015 11.8965C5.40015 14.7972 4.37098 17.4574 2.65788 19.5321C0.995424 17.4728 0 14.8526 0 11.9999C0 9.09922 1.02917 6.43894 2.74226 4.36426Z" fill="#141316"/>
</svg>
